<svg xmlns="http://www.w3.org/2000/svg" width="1200" height="520" viewBox="0 0 1200 520" role="img" aria-labelledby="title description">
	<title id="title">距離スライダー A案の変更前後</title>
	<desc id="description">変更前、変更後の通常表示、もっと見る展開時を比較する実装プレビュー</desc>
	<rect width="1200" height="520" fill="#F7F7F8"/>
	<text x="48" y="48" font-family="sans-serif" font-size="24" font-weight="700" fill="#111827">#987 距離スライダー — A案</text>
	<text x="48" y="76" font-family="sans-serif" font-size="14" fill="#6B7280">検索範囲の端までの目安を、おすすめ順でコンパクトに表示</text>

	<!-- Before -->
	<g transform="translate(48 104)">
		<rect width="336" height="356" rx="24" fill="#FFFFFF" stroke="#E5E7EB"/>
		<rect x="20" y="20" width="72" height="28" rx="14" fill="#F3F4F6"/>
		<text x="56" y="39" text-anchor="middle" font-family="sans-serif" font-size="12" font-weight="700" fill="#6B7280">変更前</text>
		<text x="24" y="88" font-family="sans-serif" font-size="22" font-weight="700" fill="#111827">📏  距離は？</text>
		<text x="168" y="146" text-anchor="middle" font-family="sans-serif" font-size="28" font-weight="700" fill="#111827">500m</text>
		<line x1="44" y1="190" x2="292" y2="190" stroke="#D1D5DB" stroke-width="8" stroke-linecap="round"/>
		<circle cx="106" cy="190" r="17" fill="#FFFFFF" stroke="#111827" stroke-width="5"/>
		<text x="44" y="232" font-family="sans-serif" font-size="16" font-weight="600" fill="#111827">近い</text>
		<text x="292" y="232" text-anchor="end" font-family="sans-serif" font-size="16" font-weight="600" fill="#111827">遠い</text>
		<rect x="24" y="278" width="288" height="50" rx="12" fill="#F9FAFB"/>
		<text x="168" y="308" text-anchor="middle" font-family="sans-serif" font-size="13" fill="#9CA3AF">距離だけでは移動感が分かりにくい</text>
	</g>

	<!-- After collapsed -->
	<g transform="translate(432 104)">
		<rect width="336" height="356" rx="24" fill="#FFFFFF" stroke="#F05537" stroke-width="2"/>
		<rect x="20" y="20" width="104" height="28" rx="14" fill="#FDEBE7"/>
		<text x="72" y="39" text-anchor="middle" font-family="sans-serif" font-size="12" font-weight="700" fill="#F05537">変更後・通常</text>
		<text x="24" y="88" font-family="sans-serif" font-size="22" font-weight="700" fill="#111827">📏  距離は？</text>
		<text x="24" y="126" font-family="sans-serif" font-size="12" fill="#6B7280">検索範囲の端までの目安</text>
		<rect x="254" y="105" width="58" height="28" rx="14" fill="#FDEBE7"/>
		<text x="283" y="125" text-anchor="middle" font-family="sans-serif" font-size="15" font-weight="700" fill="#F05537">500m</text>
		<line x1="38" y1="164" x2="298" y2="164" stroke="#D1D5DB" stroke-width="6" stroke-linecap="round"/>
		<line x1="38" y1="164" x2="103" y2="164" stroke="#F05537" stroke-width="6" stroke-linecap="round"/>
		<circle cx="103" cy="164" r="14" fill="#FFFFFF" stroke="#F05537" stroke-width="4"/>
		<rect x="24" y="202" width="136" height="40" rx="20" fill="#FFF7F5"/>
		<text x="92" y="227" text-anchor="middle" font-family="sans-serif" font-size="13" font-weight="700" fill="#111827">🚲 自転車  <tspan fill="#F05537">約6分</tspan></text>
		<rect x="168" y="202" width="120" height="40" rx="20" fill="#FFF7F5"/>
		<text x="228" y="227" text-anchor="middle" font-family="sans-serif" font-size="13" font-weight="700" fill="#111827">🚶 徒歩  <tspan fill="#F05537">約7分</tspan></text>
		<text x="168" y="280" text-anchor="middle" font-family="sans-serif" font-size="13" font-weight="700" fill="#F05537">もっと見る⌄</text>
		<text x="168" y="320" text-anchor="middle" font-family="sans-serif" font-size="12" fill="#6B7280">おすすめ2件だけで高さを抑える</text>
	</g>

	<!-- After expanded -->
	<g transform="translate(816 104)">
		<rect width="336" height="356" rx="24" fill="#FFFFFF" stroke="#E5E7EB"/>
		<rect x="20" y="20" width="104" height="28" rx="14" fill="#FDEBE7"/>
		<text x="72" y="39" text-anchor="middle" font-family="sans-serif" font-size="12" font-weight="700" fill="#F05537">もっと見る</text>
		<text x="24" y="88" font-family="sans-serif" font-size="22" font-weight="700" fill="#111827">📏  距離は？</text>
		<text x="24" y="126" font-family="sans-serif" font-size="12" fill="#6B7280">検索範囲の端までの目安</text>
		<rect x="254" y="105" width="58" height="28" rx="14" fill="#FDEBE7"/>
		<text x="283" y="125" text-anchor="middle" font-family="sans-serif" font-size="15" font-weight="700" fill="#F05537">500m</text>
		<line x1="38" y1="164" x2="298" y2="164" stroke="#D1D5DB" stroke-width="6" stroke-linecap="round"/>
		<line x1="38" y1="164" x2="103" y2="164" stroke="#F05537" stroke-width="6" stroke-linecap="round"/>
		<circle cx="103" cy="164" r="14" fill="#FFFFFF" stroke="#F05537" stroke-width="4"/>
		<rect x="24" y="196" width="136" height="36" rx="18" fill="#FFF7F5"/>
		<text x="92" y="219" text-anchor="middle" font-family="sans-serif" font-size="12" font-weight="700" fill="#111827">🚲 自転車  <tspan fill="#F05537">約6分</tspan></text>
		<rect x="168" y="196" width="120" height="36" rx="18" fill="#FFF7F5"/>
		<text x="228" y="219" text-anchor="middle" font-family="sans-serif" font-size="12" font-weight="700" fill="#111827">🚶 徒歩  <tspan fill="#F05537">約7分</tspan></text>
		<rect x="24" y="242" width="120" height="36" rx="18" fill="#F3F4F6"/>
		<text x="84" y="265" text-anchor="middle" font-family="sans-serif" font-size="12" font-weight="700" fill="#111827">🚗 車  <tspan fill="#4B5563">約9分</tspan></text>
		<rect x="152" y="242" width="136" height="36" rx="18" fill="#F3F4F6"/>
		<text x="220" y="265" text-anchor="middle" font-family="sans-serif" font-size="12" font-weight="700" fill="#111827">🚆 電車  <tspan fill="#4B5563">約18分</tspan></text>
		<text x="168" y="314" text-anchor="middle" font-family="sans-serif" font-size="13" font-weight="700" fill="#F05537">閉じる⌃</text>
	</g>

	<text x="600" y="496" text-anchor="middle" font-family="sans-serif" font-size="12" fill="#6B7280">表示時間は実経路のETAではなく、国土交通省の一般化所要時間モデルによる検索半径端までの目安</text>
</svg>
